# xmcd
#
# Track frame offsets:
#	150
#	14075
#	30878
#	58128
#	79808
#	94703
#	108408
#	130810
#	142315
#	172160
#	190690
#	208730
#
# Disc length: 3040 seconds
#
# Revision: 1
# Processed by: cddbd v1.4PL0 Copyright (c) Steve Scherf et al.
# Submitted via: audiograbber 1.80.04
#
DISCID=ab0bde0c
DTITLE=Michael Locke - You Done Did It
DYEAR=1900
DGENRE=
TTITLE0=Can't Stop Movin
TTITLE1=You Done Did It
TTITLE2=All Your Love I Miss Lovin
TTITLE3=Hideaway
TTITLE4=Yea
TTITLE5=My Baby's Arms
TTITLE6=Lovin' You On Credit
TTITLE7=Austin Backwash
TTITLE8=Cost of Lovin'
TTITLE9=Time Will Tell
TTITLE10=Six Feet
TTITLE11=Come On
EXTD=
EXTT0=
EXTT1=
EXTT2=
EXTT3=
EXTT4=
EXTT5=
EXTT6=
EXTT7=
EXTT8=
EXTT9=
EXTT10=
EXTT11=
PLAYORDER=
